<svg width="30" height="31" viewBox="0 0 30 31" fill="none" xmlns="http://www.w3.org/2000/svg">
<g clip-path="url(#clip0_357_28)">
<path d="M9.92365 15.2902C9.38189 15.8471 9.38189 16.7439 9.92365 17.3009L12.6379 20.0914C13.1796 20.6484 14.0519 20.6484 14.5936 20.0914L20.5367 13.9812C21.0785 13.4242 21.0785 12.5275 20.5367 11.9705C19.995 11.4135 19.1228 11.4135 18.581 11.9705L13.613 17.0781L11.8794 15.2957C11.3376 14.7387 10.4654 14.7387 9.92365 15.2957V15.2902Z" fill="#A1A8AC"/>
<path d="M15.9209 2.16167H15.8993C15.3142 1.94444 14.6803 1.94444 14.1006 2.1561H14.079L4.84736 5.48691C3.74217 5.88795 3.00537 6.96294 3.00537 8.16605V17.5959C3.01079 21.9349 5.48663 25.8728 9.33855 27.6552L13.8731 29.7551C14.5936 30.0893 15.4225 30.0893 16.1431 29.7551L20.6776 27.6552C24.5295 25.8673 27.0054 21.9349 27.0108 17.5904V8.16048C27.0108 6.95737 26.274 5.88238 25.1688 5.48134L15.9209 2.16167ZM24.2316 17.5848C24.2316 20.8098 22.3896 23.734 19.5345 25.0541L16.1377 26.6248C15.4171 26.959 14.5936 26.959 13.8731 26.6248L10.4763 25.0541C7.61576 23.734 5.77919 20.8098 5.77919 17.5848V10.1824C5.77919 8.97368 6.5214 7.90426 7.62659 7.50323L14.0952 5.175C14.6857 4.96334 15.3304 4.96334 15.9209 5.175L22.3896 7.50323C23.4948 7.90426 24.237 8.97368 24.237 10.1824V17.5848H24.2316Z" fill="#A1A8AC"/>
</g>
<defs>
<clipPath id="clip0_357_28">
<rect width="24" height="28" fill="white" transform="translate(3 2)"/>
</clipPath>
</defs>
</svg>
