<svg width="30" height="31" viewBox="0 0 30 31" fill="none" xmlns="http://www.w3.org/2000/svg">
<path d="M14.9965 30.5C6.73181 30.5 0 23.7753 0 15.5035C0 11.4984 1.5611 7.72628 4.39369 4.89369C7.22628 2.0611 10.9913 0.5 14.9965 0.5C21.0431 0.5 26.461 4.09548 28.8133 9.66176C29.5974 11.5195 30 13.4833 30 15.4965C30 19.5016 28.4389 23.2667 25.6063 26.1063C22.7737 28.946 19.0087 30.5 15.0035 30.5H14.9965ZM15.0035 20.5471C11.7118 20.5471 8.70968 22.3484 7.1627 25.2516L6.99317 25.5695L7.28279 25.7884C9.52202 27.4767 12.1921 28.3667 15.0035 28.3667C17.8149 28.3667 20.478 27.4767 22.7243 25.7884L23.0139 25.5695L22.8444 25.2516C22.0108 23.6905 20.7464 22.4261 19.1853 21.5925C17.8997 20.9073 16.4587 20.5471 15.0106 20.5471H15.0035ZM14.9894 2.61914C12.0579 2.61914 9.18295 3.63633 6.90134 5.48705C1.39157 9.95138 0.536849 18.0677 5.00118 23.5775L5.37556 24.0366L5.69343 23.5351C6.8519 21.6914 8.51896 20.2504 10.5109 19.3674L11.0619 19.1202L10.6381 18.6822C8.37062 16.33 8.37062 12.6427 10.6381 10.2904C11.7895 9.09666 13.3365 8.43972 14.9894 8.43972C16.6423 8.43972 18.048 9.04015 19.1853 10.135C20.3508 11.2582 21.0078 12.7628 21.036 14.3733C21.0643 15.9839 20.4639 17.5167 19.3478 18.6822L18.931 19.1202L19.482 19.3674C21.474 20.2575 23.141 21.6985 24.3136 23.5351L24.6315 24.0366L25.0059 23.5775C28.7992 18.8871 28.7992 12.0776 25.0059 7.38721C22.5547 4.35684 18.9028 2.61914 15.0035 2.61914H14.9894ZM14.9965 10.6012C12.842 10.6012 11.0902 12.3531 11.0902 14.5075C11.0902 16.662 12.842 18.4138 14.9965 18.4138C17.1509 18.4138 18.9028 16.662 18.9028 14.5075C18.9028 12.3531 17.1509 10.6012 14.9965 10.6012Z" fill="#A1A8AC"/>
</svg>
