<svg width="34" height="22" viewBox="0 0 34 22" fill="none" xmlns="http://www.w3.org/2000/svg">
<g clip-path="url(#clip0_357_35)">
<path fill-rule="evenodd" clip-rule="evenodd" d="M32.0323 7.57374C30.3629 7.91058 29.1488 9.35348 29.1488 10.9975C29.1488 12.6415 30.3629 14.0844 32.0323 14.4212C33.1941 14.6575 34.0052 15.5977 34.0052 16.7088V19.1622C34.0052 20.4492 32.9167 21.495 31.577 21.495H3.6423C1.63275 21.495 0 19.9264 0 17.9958V3.99916C0 2.06859 1.63275 0.5 3.6423 0.5H31.5718C32.9115 0.5 34 1.54573 34 2.83277V5.28621C34 6.39729 33.1889 7.33744 32.0271 7.57374H32.0323ZM31.5718 16.7088C28.7406 16.1407 26.7154 13.7425 26.7154 10.9975C26.7154 8.25245 28.7406 5.85432 31.5299 5.29124L31.5718 2.83277H24.2872V5.16555C24.2872 5.80907 23.743 6.33194 23.0731 6.33194C22.4033 6.33194 21.859 5.80907 21.859 5.16555V2.83277H3.6423C2.97245 2.83277 2.4282 3.35564 2.4282 3.99916V18.0008C2.4282 18.6444 2.97245 19.1672 3.6423 19.1672H21.859V16.8344C21.859 16.1909 22.4033 15.6681 23.0731 15.6681C23.743 15.6681 24.2872 16.1909 24.2872 16.8344V19.1672H31.5718V16.7138V16.7088ZM15.3594 12.5057C16.2438 12.5057 16.966 13.1945 16.966 14.0492C16.966 14.9039 16.249 15.5926 15.3594 15.5926C14.4698 15.5926 13.7528 14.9039 13.7528 14.0492C13.7528 13.1945 14.4698 12.5057 15.3594 12.5057ZM7.32122 7.87539C7.32122 7.02574 8.03817 6.33194 8.92781 6.33194C9.81745 6.33194 10.5344 7.02071 10.5344 7.87539C10.5344 8.73007 9.81745 9.41884 8.92781 9.41884C8.03817 9.41884 7.32122 8.73007 7.32122 7.87539ZM16.2124 7.05087C16.6886 7.50838 16.6886 8.24743 16.2124 8.6999L9.78605 14.8737C9.55056 15.1 9.23657 15.2156 8.92781 15.2156C8.61905 15.2156 8.30506 15.1 8.06957 14.8737C7.59335 14.4162 7.59335 13.6772 8.06957 13.2247L14.4959 7.05087C14.9721 6.59337 15.7362 6.59337 16.2124 7.05087ZM23.0731 8.66471C23.743 8.66471 24.2872 9.18757 24.2872 9.8311V12.1639C24.2872 12.8074 23.743 13.3303 23.0731 13.3303C22.4033 13.3303 21.859 12.8074 21.859 12.1639V9.8311C21.859 9.18757 22.4033 8.66471 23.0731 8.66471Z" fill="#A1A8AC"/>
</g>
<defs>
<clipPath id="clip0_357_35">
<rect width="34" height="21" fill="white" transform="translate(0 0.5)"/>
</clipPath>
</defs>
</svg>
