<svg width="50" height="50" viewBox="0 0 50 50" fill="none" xmlns="http://www.w3.org/2000/svg">
<path d="M19.25 23.2499C18.25 22.2499 16.75 22.2499 15.75 23.2499C14.75 24.2499 14.75 25.7499 15.75 26.7499L23.25 34.2499C23.75 34.7499 24.25 34.9999 25 34.9999C25.75 34.9999 26.25 34.7499 26.75 34.2499L44.25 14.2499C45 12.9999 45 11.4999 43.75 10.7499C42.75 9.99994 41.25 9.99994 40.5 10.9999L25 28.7499L19.25 23.2499Z" fill="#02BC7D"/>
<path d="M47.5 22.5C46 22.5 45 23.5 45 25C45 36 36 45 25 45C14 45 5 36 5 25C5 19.75 7 14.75 10.75 11C14.5 7 19.5 5 25 5C26.5 5 28.25 5.25 29.75 5.5C31 6 32.5 5.25 33 3.75C33.5 2.25 32.5 1.25 31.25 0.75H31C29 0.25 27 0 25 0C11.25 0 0 11.25 0 25.25C0 31.75 2.75 38.25 7.25 42.75C12 47.5 18.25 50 24.75 50C38.5 50 49.75 38.75 49.75 25C50 23.5 48.75 22.5 47.5 22.5Z" fill="#02BC7D"/>
</svg>
