<svg width="19" height="20" viewBox="0 0 19 20" fill="none" xmlns="http://www.w3.org/2000/svg">
<path d="M17.9507 3.78564H0.904114M16.2791 6.28564L15.8179 13.1856C15.6404 15.8396 15.5521 17.1666 14.6848 17.9756C13.8174 18.7856 12.4828 18.7856 9.81546 18.7856H9.03934C6.37205 18.7856 5.03741 18.7856 4.17004 17.9756C3.30267 17.1666 3.21342 15.8396 3.03694 13.1856L2.57568 6.28564M6.92055 8.78564L7.42192 13.7856M11.9343 8.78564L11.4329 13.7856" stroke="#797979" stroke-width="1.5" stroke-linecap="round"/>
<path d="M3.91232 3.78564H4.02262C4.42617 3.77536 4.81722 3.64387 5.14461 3.40836C5.47201 3.17285 5.72052 2.84429 5.85764 2.46564L5.89173 2.36264L5.989 2.07164C6.07222 1.82264 6.11434 1.69864 6.16949 1.59264C6.27799 1.38503 6.43372 1.20564 6.62421 1.0688C6.8147 0.931971 7.03466 0.841505 7.26649 0.804645C7.38381 0.785645 7.51517 0.785645 7.77788 0.785645H11.0769C11.3396 0.785645 11.471 0.785645 11.5883 0.804645C11.8201 0.841505 12.0401 0.931971 12.2306 1.0688C12.4211 1.20564 12.5768 1.38503 12.6853 1.59264C12.7404 1.69864 12.7826 1.82264 12.8658 2.07164L12.9631 2.36264C13.0901 2.78392 13.3529 3.15165 13.7108 3.40891C14.0686 3.66616 14.5015 3.79857 14.9425 3.78564" stroke="#797979" stroke-width="1.5"/>
</svg>
