<svg width="35" height="25" viewBox="0 0 35 25" fill="none" xmlns="http://www.w3.org/2000/svg">
<path d="M15.8248 24.357H8.76675C6.38793 24.357 4.35574 23.5601 2.67017 21.9664C0.983563 20.3726 0.140259 18.4247 0.140259 16.1226C0.140259 14.1494 0.754569 12.3912 1.98319 10.8481C3.21181 9.30492 4.81948 8.31831 6.80618 7.88825C7.4597 5.56087 8.76675 3.6762 10.7273 2.23424C12.6879 0.792271 14.9099 0.0712891 17.3932 0.0712891C20.4517 0.0712891 23.0459 1.10191 25.1759 3.16316C27.3069 5.22543 28.3724 7.73647 28.3724 10.6963C30.1761 10.8987 31.6729 11.651 32.8629 12.9533C34.0518 14.2567 34.6462 15.7811 34.6462 17.5266C34.6462 19.424 33.9603 21.0369 32.5884 22.3656C31.2155 23.6932 29.5487 24.357 27.5882 24.357H18.9617V13.5043L21.4712 15.857L23.667 13.732L17.3932 7.66057L11.1194 13.732L13.3153 15.857L15.8248 13.5043V24.357Z" fill="white"/>
</svg>
