<svg width="53" height="53" viewBox="0 0 53 53" fill="none" xmlns="http://www.w3.org/2000/svg">
<circle cx="26.1978" cy="26.1978" r="25.1978" fill="white" stroke="#00E676" stroke-width="2"/>
<path d="M18.0763 31.1534L18.6212 31.4296C20.8919 32.8102 23.4348 33.4545 25.9779 33.4545C33.9703 33.4545 40.5095 26.8273 40.5095 18.7273C40.5095 14.8614 38.9654 11.0875 36.2408 8.32612C33.5161 5.56471 29.8831 4 25.9779 4C17.9855 4 11.4462 10.6273 11.5371 18.8194C11.5371 21.5807 12.3545 24.2501 13.7168 26.5511L14.08 27.1035L12.627 32.5342L18.0763 31.1534Z" fill="#00E676"/>
<path d="M36.2482 8.37837C33.5143 5.54059 29.7351 4 25.8755 4C17.674 4 11.0805 10.7297 11.1608 18.9189C11.1608 21.5135 11.8845 24.0271 13.0907 26.2973L11 34L18.7996 31.973C20.9706 33.1893 23.3828 33.7568 25.7952 33.7568C33.9164 33.7568 40.5099 27.027 40.5099 18.838C40.5099 14.8649 38.982 11.1351 36.2482 8.37837ZM25.8755 31.2434C23.7045 31.2434 21.5335 30.6759 19.6841 29.5407L19.2017 29.2974L14.538 30.5136L15.7441 25.8921L15.4225 25.4055C11.8845 19.6488 13.5731 12.027 19.3625 8.45939C25.1518 4.89188 32.6298 6.59462 36.1679 12.4324C39.7058 18.2703 38.0172 25.8108 32.2279 29.3785C30.3784 30.5946 28.127 31.2434 25.8755 31.2434ZM32.9514 22.2434L32.067 21.838C32.067 21.838 30.7805 21.2704 29.9764 20.865C29.8959 20.865 29.8156 20.7839 29.7351 20.7839C29.4939 20.7839 29.3331 20.865 29.1723 20.9461C29.1723 20.9461 29.0919 21.0272 27.9662 22.3245C27.8857 22.4866 27.7249 22.5677 27.5641 22.5677H27.4837C27.4033 22.5677 27.2425 22.4866 27.1621 22.4056L26.76 22.2434C25.8755 21.838 25.0715 21.3514 24.4282 20.7029C24.2674 20.5407 24.0261 20.3786 23.8653 20.2164C23.3024 19.6488 22.7396 19.0001 22.3376 18.2704L22.2572 18.1082C22.1768 18.0271 22.1768 17.9461 22.0964 17.7839C22.0964 17.6218 22.0964 17.4596 22.1768 17.3785C22.1768 17.3785 22.4984 16.9731 22.7396 16.7299C22.9005 16.5676 22.9808 16.3245 23.1416 16.1623C23.3024 15.9191 23.3829 15.5948 23.3024 15.3515C23.2221 14.946 22.2572 12.7569 22.016 12.2704C21.8551 12.0271 21.6944 11.9461 21.4531 11.865H20.5687C20.4077 11.865 20.2471 11.9461 20.0861 11.9461L20.0057 12.0271C19.8449 12.1083 19.6841 12.2704 19.5233 12.3514C19.3625 12.5137 19.282 12.6757 19.1212 12.838C18.5583 13.5677 18.2367 14.4596 18.2367 15.3515C18.2367 16.0001 18.3975 16.6488 18.6388 17.2164L18.7193 17.4596C19.4429 19.0001 20.4077 20.3786 21.6944 21.5947L22.016 21.919C22.2572 22.1623 22.4984 22.3245 22.6592 22.5676C24.3478 24.0272 26.2776 25.0812 28.4486 25.6488C28.6899 25.7298 29.0115 25.7298 29.2527 25.811H30.0568C30.4588 25.811 30.9412 25.6488 31.263 25.4867C31.5041 25.3245 31.6649 25.3245 31.8257 25.1624L31.9866 25.0001C32.1474 24.8379 32.3082 24.7569 32.469 24.5948C32.6298 24.4326 32.7906 24.2705 32.8711 24.1082C33.0319 23.7839 33.1122 23.3785 33.1927 22.9732V22.4056C33.1927 22.4056 33.1122 22.3245 32.9514 22.2434Z" fill="white"/>
<path d="M20.4683 41.4541H21.811C21.7681 41.9661 21.6248 42.4227 21.3813 42.8237C21.1379 43.2212 20.7959 43.5345 20.3555 43.7637C19.915 43.9928 19.3797 44.1074 18.7495 44.1074C18.2661 44.1074 17.8311 44.0215 17.4443 43.8496C17.0576 43.6742 16.7264 43.4271 16.4507 43.1084C16.175 42.7861 15.9637 42.3976 15.8169 41.9429C15.6737 41.4881 15.6021 40.9797 15.6021 40.4175V39.7676C15.6021 39.2054 15.6755 38.6969 15.8223 38.2422C15.9727 37.7874 16.1875 37.3989 16.4668 37.0767C16.7461 36.7508 17.0809 36.502 17.4712 36.3301C17.8651 36.1582 18.3073 36.0723 18.7979 36.0723C19.4209 36.0723 19.9473 36.1868 20.377 36.416C20.8066 36.6452 21.1396 36.9621 21.376 37.3667C21.6159 37.7713 21.7627 38.235 21.8164 38.7578H20.4736C20.4378 38.4212 20.359 38.133 20.2373 37.8931C20.1191 37.6532 19.9437 37.4705 19.7109 37.3452C19.4782 37.2163 19.1738 37.1519 18.7979 37.1519C18.4899 37.1519 18.2214 37.2091 17.9922 37.3237C17.763 37.4383 17.5715 37.6066 17.4175 37.8286C17.2635 38.0506 17.1471 38.3245 17.0684 38.6504C16.9932 38.9727 16.9556 39.3415 16.9556 39.7568V40.4175C16.9556 40.8114 16.9896 41.1694 17.0576 41.4917C17.1292 41.8104 17.2367 42.0843 17.3799 42.3135C17.5267 42.5426 17.7129 42.7199 17.9385 42.8452C18.1641 42.9705 18.4344 43.0332 18.7495 43.0332C19.1326 43.0332 19.4424 42.9723 19.6787 42.8506C19.9186 42.7288 20.0994 42.5516 20.2212 42.3188C20.3465 42.0825 20.4289 41.7943 20.4683 41.4541ZM24.1851 35.75V44H22.896V35.75H24.1851ZM23.9595 40.8794L23.5405 40.874C23.5441 40.473 23.5996 40.1024 23.707 39.7622C23.818 39.422 23.972 39.1266 24.1689 38.876C24.3695 38.6217 24.6094 38.4266 24.8887 38.2905C25.168 38.1509 25.4777 38.0811 25.8179 38.0811C26.1043 38.0811 26.3621 38.1204 26.5913 38.1992C26.8241 38.278 27.0246 38.4051 27.1929 38.5806C27.3612 38.7524 27.4883 38.978 27.5742 39.2573C27.6637 39.533 27.7085 39.8696 27.7085 40.2671V44H26.4087V40.2563C26.4087 39.9771 26.3675 39.755 26.2852 39.5903C26.2064 39.4256 26.09 39.3075 25.936 39.2358C25.7821 39.1606 25.5941 39.123 25.3721 39.123C25.1393 39.123 24.9334 39.1696 24.7544 39.2627C24.5789 39.3558 24.4321 39.4829 24.314 39.644C24.1958 39.8052 24.1063 39.9914 24.0454 40.2026C23.9881 40.4139 23.9595 40.6395 23.9595 40.8794ZM32.2954 42.8345V40.063C32.2954 39.8553 32.2578 39.6763 32.1826 39.5259C32.1074 39.3755 31.9928 39.2591 31.8389 39.1768C31.6885 39.0944 31.4987 39.0532 31.2695 39.0532C31.0583 39.0532 30.8757 39.089 30.7217 39.1606C30.5677 39.2323 30.4478 39.3289 30.3618 39.4507C30.2759 39.5724 30.2329 39.7103 30.2329 39.8643H28.9438C28.9438 39.6351 28.9993 39.4131 29.1104 39.1982C29.2214 38.9834 29.3825 38.7918 29.5938 38.6235C29.805 38.4552 30.0575 38.3228 30.3511 38.2261C30.6447 38.1294 30.9741 38.0811 31.3394 38.0811C31.7762 38.0811 32.1629 38.1545 32.4995 38.3013C32.8397 38.4481 33.1064 38.6701 33.2998 38.9673C33.4967 39.2609 33.5952 39.6297 33.5952 40.0737V42.6572C33.5952 42.9222 33.6131 43.1603 33.6489 43.3716C33.6883 43.5793 33.7438 43.7601 33.8154 43.9141V44H32.4888C32.4279 43.8604 32.3796 43.6831 32.3438 43.4683C32.3115 43.2498 32.2954 43.0386 32.2954 42.8345ZM32.4834 40.4658L32.4941 41.2661H31.5649C31.325 41.2661 31.1138 41.2894 30.9312 41.3359C30.7485 41.3789 30.5964 41.4434 30.4746 41.5293C30.3529 41.6152 30.2616 41.7191 30.2007 41.8408C30.1398 41.9626 30.1094 42.1004 30.1094 42.2544C30.1094 42.4084 30.1452 42.5498 30.2168 42.6787C30.2884 42.804 30.3923 42.9025 30.5283 42.9741C30.668 43.0457 30.8363 43.0815 31.0332 43.0815C31.2982 43.0815 31.5291 43.0278 31.7261 42.9204C31.9266 42.8094 32.0841 42.6751 32.1987 42.5176C32.3133 42.3564 32.3742 42.2043 32.3813 42.061L32.8003 42.6357C32.7573 42.7826 32.6839 42.9401 32.5801 43.1084C32.4762 43.2767 32.3402 43.4378 32.1719 43.5918C32.0072 43.7422 31.8084 43.8657 31.5757 43.9624C31.3465 44.0591 31.0815 44.1074 30.7808 44.1074C30.4012 44.1074 30.0628 44.0322 29.7656 43.8818C29.4684 43.7279 29.2357 43.522 29.0674 43.2642C28.8991 43.0028 28.8149 42.7074 28.8149 42.3779C28.8149 42.07 28.8722 41.7979 28.9868 41.5615C29.105 41.3216 29.2769 41.1211 29.5024 40.96C29.7316 40.7988 30.0109 40.6771 30.3403 40.5947C30.6698 40.5088 31.0457 40.4658 31.4683 40.4658H32.4834ZM37.6128 38.1885V39.1338H34.3364V38.1885H37.6128ZM35.2817 36.7651H36.5762V42.394C36.5762 42.5731 36.6012 42.7109 36.6514 42.8076C36.7051 42.9007 36.7785 42.9634 36.8716 42.9956C36.9647 43.0278 37.0739 43.0439 37.1992 43.0439C37.2887 43.0439 37.3747 43.0386 37.457 43.0278C37.5394 43.0171 37.6056 43.0063 37.6558 42.9956L37.6611 43.9839C37.5537 44.0161 37.4284 44.0448 37.2852 44.0698C37.1455 44.0949 36.9844 44.1074 36.8018 44.1074C36.5046 44.1074 36.2414 44.0555 36.0122 43.9517C35.783 43.8442 35.604 43.6706 35.4751 43.4307C35.3462 43.1908 35.2817 42.8721 35.2817 42.4746V36.7651Z" fill="#00E676"/>
</svg>
